<svg width="110" height="130" viewBox="0 0 110 130" fill="none" xmlns="http://www.w3.org/2000/svg">
<g opacity="0.1">
<path d="M68.5633 25.6298C72.9023 39.8153 55.1781 26.5883 47.6252 43.8238L35.9492 38.7093L38.8381 32.1259C57.2451 -9.88973 88.0079 6.76962 81.9323 20.6383C75.8567 34.507 60.9695 20.7175 60.9695 20.7175" fill="white"/>
<path d="M76.4279 31.0366C80.7668 45.2247 63.0426 31.995 55.4898 49.2305L43.8164 44.1161L46.7 37.5326C65.1097 -4.48299 95.8724 12.1764 89.7968 26.045C83.7213 39.9137 68.8341 26.1242 68.8341 26.1242" fill="#21B999"/>
<path d="M39.1901 37.4454L46.4671 40.6348C50.9889 32.5795 57.9028 31.7002 62.5995 31.0995C64.1614 30.9002 66.2994 30.6299 66.6407 30.1029C66.6816 30.0346 66.9985 29.4557 66.5097 27.4214C62.7005 25.5919 59.8141 23.0006 59.298 22.5227C58.3041 21.5998 58.2442 20.0488 59.1644 19.0522C60.0846 18.0582 61.6355 17.9954 62.6376 18.9129C63.8172 20.0024 66.496 22.0694 69.4041 23.3201C69.4806 23.3501 69.5597 23.3829 69.6334 23.4184C71.4547 24.172 73.3416 24.5898 75.01 24.2403C76.9814 23.828 78.5106 22.3261 79.682 19.6502C81.3995 15.729 79.0103 11.158 74.1253 9.01995C64.7348 4.90221 50.8825 10.7593 41.0879 33.112L39.1901 37.4454ZM47.622 46.2816C47.2944 46.2816 46.9613 46.2161 46.6391 46.0768L34.9659 40.9597C34.3679 40.6976 33.8981 40.2115 33.6606 39.6026C33.4257 38.9964 33.4394 38.3192 33.7016 37.724L36.5878 31.1405C49.3342 2.04055 67.4244 0.713479 76.0968 4.51719C83.5485 7.78025 87.0273 15.1365 84.182 21.6244C82.3525 25.8049 79.6001 28.3061 76.0039 29.0543C74.5649 29.3547 73.1122 29.341 71.6895 29.1144C71.7114 30.3896 71.4794 31.6675 70.7694 32.7706C69.1884 35.2145 66.2884 35.5859 63.2219 35.9764C58.5171 36.5744 53.187 37.2543 49.8748 44.8099C49.4734 45.7328 48.5695 46.2816 47.622 46.2816Z" fill="#7E1416"/>
<path d="M91.115 23.3497C100.781 34.6025 79.2368 29.5974 79.2368 48.4166H66.4932V41.2297C66.4932 -4.64428 101.355 -1.73075 101.355 13.4104C101.355 28.5515 82.1859 21.8971 82.1859 21.8971" fill="white"/>
<path d="M98.9793 31.214C108.646 42.4668 87.1011 37.4616 87.1011 56.2808H74.3574V49.0939C74.3574 3.21998 109.219 6.13351 109.219 21.2746C109.219 36.4158 90.0502 29.7613 90.0502 29.7613" fill="#21B999"/>
<path d="M68.9502 45.9592H76.8961C77.8027 36.768 83.7827 33.1855 87.8458 30.7525C89.1975 29.9443 91.0461 28.8357 91.1471 28.2186C91.158 28.1394 91.2155 27.4813 89.9485 25.8129C85.727 25.6655 82.0461 24.4503 81.3799 24.2182C80.0992 23.7732 79.422 22.3751 79.8644 21.0944C80.3068 19.811 81.713 19.1284 82.9881 19.5762C84.49 20.0923 87.7148 20.8978 90.8468 20.8978H90.9643C91.0407 20.8924 91.1199 20.8896 91.1991 20.8924C93.1678 20.8541 95.0737 20.4773 96.4581 19.4916C98.0992 18.3202 98.8966 16.3323 98.8966 13.4105C98.8966 9.12896 94.8745 5.9014 89.5416 5.9014C84.6266 5.9014 79.7579 8.61288 76.1863 13.3395C71.4515 19.6035 68.9502 29.248 68.9502 41.2271V45.9592ZM79.2362 50.8743H66.4926C65.1355 50.8743 64.0352 49.7739 64.0352 48.4168V41.2271C64.0352 28.1694 66.8804 17.501 72.2624 10.3769C76.7734 4.40779 83.0701 0.986328 89.5416 0.986328C97.6788 0.986328 103.812 6.32738 103.812 13.4105C103.812 17.9761 102.296 21.3702 99.3007 23.5001C98.1047 24.352 96.7667 24.9227 95.3741 25.2859C95.9066 26.4437 96.2069 27.7079 95.9966 29.0049C95.5297 31.8775 93.0258 33.3794 90.3716 34.9686C86.303 37.407 81.6938 40.1676 81.6938 48.4168C81.6938 49.7739 80.5934 50.8743 79.2362 50.8743Z" fill="#7E1416"/>
<path d="M3.09521 88.7803C2.52998 93.3404 7.9994 96.8847 11.9287 94.5063C31.9958 82.3634 73.0557 53.4437 44.3298 34.8292C15.5985 16.2121 5.97871 65.5074 3.09521 88.7803Z" fill="white"/>
<path d="M10.9585 96.6444C10.3933 101.202 15.8625 104.746 19.7946 102.368C39.859 90.2275 80.9189 61.3078 52.193 42.6906C23.4645 24.0762 13.842 73.3689 10.9585 96.6444Z" fill="#F48070"/>
<path d="M5.53263 89.0831C5.35787 90.4785 6.26174 91.5981 7.16283 92.1824C8.06393 92.764 9.45924 93.1272 10.6552 92.4036C36.6013 76.7027 51.5813 61.3049 51.7533 50.1531C51.8298 45.0988 48.9654 40.7599 42.9909 36.8906C37.0163 33.0214 31.8884 32.1776 27.3065 34.3129C17.1978 39.0259 9.25989 58.9893 5.53263 89.0831ZM9.16711 97.7255C7.56972 97.7255 5.94771 97.2504 4.48957 96.3056C1.74533 94.5307 0.276208 91.5298 0.65576 88.477C2.9713 69.7833 9.24079 37.3111 25.2257 29.8593C31.3859 26.984 38.2588 27.967 45.6641 32.7647C53.0695 37.5651 56.7722 43.4386 56.6657 50.2296C56.3953 67.8637 29.3188 86.8577 13.2028 96.6087C11.9686 97.3541 10.5788 97.7255 9.16711 97.7255Z" fill="#7E1416"/>
<path d="M20.7259 53.2909C20.2672 53.2909 19.8003 53.1626 19.388 52.895L12.5423 48.455C11.4037 47.7177 11.076 46.1941 11.816 45.0581C12.5533 43.9168 14.0769 43.5918 15.2156 44.3318L22.0639 48.769C23.1998 49.509 23.5275 51.03 22.7875 52.1686C22.3179 52.895 21.5287 53.2909 20.7259 53.2909Z" fill="#7E1416"/>
<path d="M32.9072 82.4697C32.4512 82.4697 31.9897 82.3414 31.5774 82.0738L22.8204 76.3996C21.679 75.6624 21.3568 74.1414 22.0968 73.0028C22.834 71.8614 24.3578 71.5391 25.4937 72.2764L34.248 77.9506C35.3866 78.6878 35.7143 80.2088 34.9743 81.3475C34.5046 82.0738 33.7154 82.4697 32.9072 82.4697Z" fill="#7E1416"/>
<path d="M62.6646 117.618C65.1713 122.667 73.3139 122.667 75.8206 117.618C88.6107 91.8387 112.02 34.9004 69.2426 34.9004C26.4679 34.9004 49.8745 91.8387 62.6646 117.618Z" fill="white"/>
<path d="M70.5289 125.482C73.0356 130.531 81.1809 130.531 83.6849 125.482C96.475 99.6997 119.884 42.7642 77.1069 42.7642C34.3321 42.7642 57.7388 99.6997 70.5289 125.482Z" fill="#F48070"/>
<path d="M64.8687 116.526C65.7534 118.312 67.7085 118.948 69.2431 118.948C70.7777 118.948 72.7356 118.312 73.6203 116.526C81.4325 100.781 98.4824 62.351 88.1061 45.618C84.6574 40.0585 78.4889 37.3579 69.2431 37.3579C60 37.3579 53.8317 40.0585 50.3829 45.618C40.004 62.351 57.0565 100.781 64.8687 116.526ZM69.2431 123.863C65.4066 123.863 62.0425 121.889 60.4642 118.71C50.3064 98.2365 34.9468 61.1796 46.2051 43.0267C50.5604 36.0036 58.3125 32.4429 69.2431 32.4429C80.1764 32.4429 87.9259 36.0036 92.2812 43.0267C103.539 61.1796 88.1798 98.2365 78.0247 118.71C76.4464 121.889 73.0823 123.863 69.2431 123.863Z" fill="#7E1416"/>
<path d="M74.3211 69.4478H70.3891C69.032 69.4478 67.9316 68.3474 67.9316 66.9903C67.9316 65.6332 69.032 64.5327 70.3891 64.5327H74.3211C75.6782 64.5327 76.7787 65.6332 76.7787 66.9903C76.7787 68.3474 75.6782 69.4478 74.3211 69.4478Z" fill="#7E1416"/>
<path d="M59.7409 69.4478H45.1705C43.8134 69.4478 42.7129 68.3474 42.7129 66.9903C42.7129 65.6332 43.8134 64.5327 45.1705 64.5327H59.7409C61.098 64.5327 62.1984 65.6332 62.1984 66.9903C62.1984 68.3474 61.098 69.4478 59.7409 69.4478Z" fill="#7E1416"/>
<path d="M87.9769 91.2735H70.3891C69.032 91.2735 67.9316 90.1731 67.9316 88.816C67.9316 87.4589 69.032 86.3584 70.3891 86.3584H87.9769C89.334 86.3584 90.4344 87.4589 90.4344 88.816C90.4344 90.1731 89.334 91.2735 87.9769 91.2735Z" fill="#7E1416"/>
</g>
</svg>
