<svg width="84" height="100" viewBox="0 0 84 100" fill="none" xmlns="http://www.w3.org/2000/svg">
<g opacity="0.1">
<path d="M25.7904 25.2513C35.8025 21.8704 40.2423 8.25005 40.2423 8.25005C40.2423 8.25005 28.4513 0.115742 18.4371 3.49873C8.42711 6.88171 3.9873 20.5021 3.9873 20.5021C3.9873 20.5021 15.7783 28.6343 25.7904 25.2513Z" fill="white"/>
<path d="M4.3771 28.7498C3.47609 28.7498 2.67827 28.1078 2.51196 27.192C0.949933 18.5483 0.15625 10.3003 0.15625 2.6754C0.15625 1.62914 1.00468 0.780762 2.05094 0.780762C3.0972 0.780762 3.94557 1.62914 3.94557 2.6754C3.94557 10.0729 4.71817 18.0957 6.2423 26.5163C6.42755 27.5457 5.74547 28.533 4.71605 28.7183C4.60027 28.7393 4.48656 28.7498 4.3771 28.7498Z" fill="#7E1416"/>
<path d="M31.8539 31.3138C41.866 27.9329 46.3057 14.3126 46.3057 14.3126C46.3057 14.3126 34.5149 6.17824 24.5048 9.56123C14.4906 12.9442 10.0508 26.5646 10.0508 26.5646C10.0508 26.5646 21.8417 34.6968 31.8539 31.3138Z" fill="#21B999"/>
<path d="M6.30946 19.7144C9.45666 21.5606 17.9825 25.8888 25.1822 23.4573C32.4071 21.0175 36.5458 12.4137 37.9205 9.03703C34.7733 7.1887 26.2474 2.8584 19.0477 5.29406C11.8207 7.73394 7.68623 16.3377 6.30946 19.7144ZM20.5214 27.9729C11.606 27.9729 3.33491 22.3521 2.91177 22.0595C2.22339 21.5837 1.92657 20.7101 2.18761 19.9123C2.38129 19.3207 7.04632 5.34879 17.8331 1.70477C28.6179 -1.94346 40.8046 6.33612 41.3183 6.68979C42.0088 7.16555 42.3034 8.03918 42.0445 8.83704C41.8508 9.43069 37.1837 23.4026 26.3969 27.0466C24.458 27.7013 22.4729 27.9729 20.5214 27.9729Z" fill="#7E1416"/>
<path d="M48.4322 21.125C52.6804 27.9668 55.5897 36.8926 57.2864 43.187C63.2714 45.7764 71.6815 49.9467 77.837 55.1401C72.6436 61.2956 65.0523 66.8195 59.5895 70.3793C58.9769 76.8716 57.6086 86.1596 54.5708 93.6181C47.1123 90.5804 39.5127 85.0691 34.4393 80.9724C28.0754 82.3955 18.8211 83.966 10.7857 83.3808C11.373 75.3496 14.2656 66.4174 16.5939 60.3272C13.274 54.7148 8.92051 46.3974 6.99219 38.5788C14.8128 36.6505 24.1997 36.6421 30.7131 36.9747C35.0244 32.0844 41.5904 25.3732 48.4322 21.125Z" fill="white"/>
<path d="M54.4947 27.1855C58.7429 34.0273 61.6522 42.9531 63.3489 49.2497C69.3318 51.839 77.744 56.0093 83.8995 61.2027C78.7061 67.3582 71.1148 72.8821 65.652 76.442C65.0373 82.9322 63.6711 92.2222 60.6333 99.6808C53.1748 96.643 45.5752 91.1317 40.5018 87.0351C34.1379 88.4582 24.8793 90.0286 16.8482 89.4434C17.4334 81.4122 20.328 72.4801 22.6542 66.3899C19.3365 60.7775 14.983 52.46 13.0547 44.6394C20.8753 42.7132 30.2643 42.7047 36.7756 43.0353C41.0869 38.1471 47.6529 31.4359 54.4947 27.1855Z" fill="#FEC972"/>
<path d="M34.439 79.0777C34.8684 79.0777 35.2895 79.2229 35.6284 79.4987C40.1924 83.1827 46.8425 88.0393 53.5074 91.0939C55.981 84.1869 57.1514 76.0378 57.703 70.2002C57.7556 69.6255 58.0693 69.1076 58.5534 68.7919C63.469 65.5899 70.1424 60.767 75.1064 55.3715C69.3066 50.8875 61.9175 47.254 56.5346 44.9257C56.0062 44.6963 55.6084 44.2373 55.4569 43.6795C53.9306 38.0145 51.4043 30.1749 47.8087 23.7921C41.7522 27.9224 36.0136 33.8273 32.1338 38.2271C31.7527 38.6608 31.1886 38.8923 30.6181 38.8671C24.7595 38.5681 16.5199 38.5471 9.33708 39.9933C11.3917 47.0288 15.2357 54.3126 18.223 59.3629C18.5156 59.8597 18.5682 60.4639 18.3619 61.0028C16.2672 66.4804 13.7053 74.3053 12.8569 81.5891C20.1934 81.8101 28.3003 80.4018 34.0263 79.124C34.1631 79.0924 34.3021 79.0777 34.439 79.0777ZM54.5706 95.5126C54.3327 95.5126 54.0906 95.4684 53.8569 95.3715C46.5289 92.3885 39.1146 87.1193 33.9611 83.0164C27.5236 84.41 18.5429 85.8415 10.6486 85.271C10.1496 85.2352 9.68232 85.0015 9.35392 84.6205C9.02551 84.2395 8.86135 83.7448 8.89714 83.2437C9.46974 75.3536 12.1895 66.672 14.4968 60.5039C11.1854 54.8094 7.04457 46.7067 5.15414 39.0313C4.90363 38.0145 5.52464 36.9872 6.54143 36.7388C14.2168 34.8462 23.3174 34.7494 29.896 35.0399C34.2895 30.1286 40.7144 23.6868 47.432 19.5144C48.3183 18.9628 49.4888 19.2365 50.0403 20.1249C54.2106 26.8382 57.1156 35.463 58.8756 41.8122C64.9026 44.471 73.0138 48.5908 79.0598 53.6916C79.8577 54.3673 79.9587 55.5631 79.2851 56.3609C74.1843 62.4069 66.8794 67.8319 61.3849 71.4654C60.7218 78.0166 59.3114 87.0014 56.3242 94.3316C56.0252 95.0663 55.3179 95.5126 54.5706 95.5126Z" fill="#7E1416"/>
<path d="M46.8551 59.6577C45.8805 59.6577 45.0509 58.9125 44.9688 57.9231C44.8804 56.881 45.6531 55.9653 46.6972 55.8748L48.495 55.7232C49.5434 55.6348 50.4549 56.4095 50.5412 57.4515C50.6317 58.4936 49.8591 59.4114 48.815 59.4998L47.0172 59.6514C46.9624 59.6556 46.9078 59.6577 46.8551 59.6577Z" fill="#7E1416"/>
<path d="M43.3014 68.3646C42.5604 68.3646 41.8573 67.9288 41.552 67.2025L40.8532 65.5395C40.4469 64.5732 40.8994 63.4638 41.8657 63.0575C42.834 62.6512 43.9393 63.1059 44.3456 64.07L45.0467 65.7331C45.4509 66.6994 44.9982 67.8088 44.034 68.2151C43.7941 68.3161 43.5456 68.3646 43.3014 68.3646Z" fill="#7E1416"/>
<path d="M33.2222 66.0069C32.6917 66.0069 32.1632 65.7859 31.7885 65.3522C31.1022 64.5607 31.1907 63.3628 31.9823 62.6787L33.3485 61.4977C34.1421 60.8135 35.3378 60.8998 36.0199 61.6913C36.7062 62.4829 36.6178 63.6807 35.8263 64.3649L34.4601 65.5459C34.1022 65.8553 33.6601 66.0069 33.2222 66.0069Z" fill="#7E1416"/>
<path d="M33.8917 56.6285C33.557 56.6285 33.2201 56.5401 32.9128 56.3549L31.3655 55.4202C30.4729 54.8791 30.1846 53.715 30.7277 52.8203C31.2666 51.9235 32.4328 51.6372 33.3275 52.1782L34.8727 53.1108C35.7674 53.6518 36.0558 54.8181 35.5148 55.7128C35.159 56.3022 34.5317 56.6285 33.8917 56.6285Z" fill="#7E1416"/>
<path d="M41.4762 53.4348C41.3352 53.4348 41.19 53.4179 41.0447 53.3842C40.0259 53.1464 39.3922 52.1296 39.6301 51.1086L40.0406 49.3508C40.2785 48.3319 41.2932 47.694 42.3163 47.9361C43.3352 48.174 43.9688 49.1929 43.7309 50.2118L43.3225 51.9696C43.1162 52.8432 42.3393 53.4348 41.4762 53.4348Z" fill="#7E1416"/>
<path d="M6.9917 40.4714C6.16858 40.4714 5.41076 39.9325 5.17288 39.101C5.15393 39.0378 4.72446 37.5369 4.11818 34.9433C3.87819 33.9244 4.51181 32.9034 5.5286 32.6655C6.54118 32.4255 7.56645 33.0592 7.80644 34.0781C8.38957 36.5706 8.8064 38.04 8.81482 38.0547C9.10322 39.061 8.52219 40.1094 7.51593 40.3978C7.3412 40.4483 7.16432 40.4714 6.9917 40.4714Z" fill="#7E1416"/>
</g>
</svg>
