<svg width="167" height="197" viewBox="0 0 167 197" fill="none" xmlns="http://www.w3.org/2000/svg">
<g opacity="0.1">
<path d="M63.6582 78.1893C64.8832 45.3643 72.0332 22.2852 89.1582 9.91016L98.1582 25.9102C116.908 4.16014 154.158 22.9101 154.158 22.9101C154.158 22.9101 154.158 50.9102 145.529 60.7019" fill="white"/>
<path d="M75.6582 90.1892C76.8832 57.3642 84.0332 34.2891 101.158 21.9141L110.158 37.9142C128.908 16.1642 166.158 34.9142 166.158 34.9142C166.158 34.9142 166.158 62.9142 157.529 72.7017" fill="#21B999"/>
<path d="M63.6587 81.9393C63.6129 81.9393 63.5671 81.9394 63.5171 81.9352C61.4504 81.8602 59.8338 80.1185 59.9088 78.0476C61.2629 41.8518 69.8587 19.2309 86.9587 6.87256C87.8295 6.24756 88.9254 6.01842 89.9629 6.24759C91.0045 6.47676 91.9046 7.14337 92.4254 8.07254L99.0129 19.7851C120.05 1.89339 154.313 18.7892 155.842 19.5642C157.109 20.1975 157.909 21.4934 157.909 22.9143C157.909 25.9226 157.638 52.631 148.342 63.181C146.971 64.7351 144.6 64.8851 143.05 63.5143C141.496 62.1476 141.346 59.7768 142.717 58.2226C148.43 51.7435 150.105 34.0643 150.367 25.306C142.588 21.9643 115.221 11.8685 100.996 28.3601C100.205 29.2851 99.0004 29.7559 97.7838 29.6434C96.5713 29.5226 95.4879 28.8143 94.8879 27.7476L88.0545 15.6017C75.1587 27.0684 68.567 47.1767 67.4045 78.3309C67.3295 80.3518 65.6671 81.9393 63.6587 81.9393Z" fill="#7E1416"/>
<path d="M62.0369 79.7563C61.9994 79.7563 61.9703 79.7563 61.9369 79.7521C59.8702 79.698 58.2327 77.9813 58.2827 75.9063C58.2952 75.5479 59.0535 39.6188 46.1701 22.448C44.9285 20.7938 45.2619 18.4396 46.9202 17.1979C48.5702 15.9479 50.9243 16.2937 52.1701 17.9479C66.6202 37.2146 65.8243 74.5229 65.7826 76.1021C65.7285 78.1396 64.0619 79.7563 62.0369 79.7563Z" fill="#7E1416"/>
<path d="M14.0333 31.5603C7.42912 31.5603 0.408203 27.2061 0.408203 19.1353C0.408203 12.3269 3.76246 6.5686 9.61664 3.3311C17.8083 -1.20641 29.05 0.0644675 39.6791 6.73114C41.4375 7.83114 41.9666 10.1436 40.8625 11.902C39.7583 13.6561 37.4375 14.1853 35.6958 13.0853C25.9417 6.96861 17.7 7.42282 13.2458 9.89365C9.80414 11.7978 7.90829 15.0769 7.90829 19.1353C7.90829 23.0311 11.9125 24.0603 14.0333 24.0603C15.5875 24.0603 17.0333 23.6228 17.9999 22.8561C18.9458 22.1061 19.4083 21.0644 19.4083 19.6728C19.4083 17.6019 21.0875 15.9228 23.1583 15.9228C25.2291 15.9228 26.9083 17.6019 26.9083 19.6728C26.9083 23.3478 25.4 26.5645 22.6583 28.7353C20.3583 30.5562 17.2916 31.5603 14.0333 31.5603Z" fill="#7E1416"/>
<path d="M129.896 153.256C133.433 166.456 125.6 180.027 112.4 183.565C99.1998 187.102 85.6289 179.269 82.0956 166.065C78.5581 152.865 86.3915 139.298 99.5915 135.761C112.791 132.223 126.358 140.056 129.896 153.256Z" fill="white"/>
<path d="M141.896 165.257C145.434 178.457 137.6 192.027 124.4 195.561C111.2 199.098 97.6294 191.269 94.0919 178.065C90.5586 164.865 98.392 151.298 111.592 147.761C124.792 144.223 138.359 152.057 141.896 165.257Z" fill="#C53A7E"/>
<path d="M105.945 188.169C101.012 188.169 96.137 186.873 91.7454 184.34C85.1537 180.531 80.4412 174.39 78.4703 167.035C77.4912 163.377 77.2496 159.631 77.7412 155.91C78.0162 153.852 79.9453 152.435 81.9537 152.685C84.0078 152.96 85.4495 154.848 85.1786 156.898C84.812 159.64 84.9954 162.398 85.7162 165.098C87.1662 170.515 90.6412 175.04 95.4954 177.848C100.354 180.648 106.008 181.385 111.429 179.94C116.845 178.49 121.37 175.015 124.175 170.165C126.979 165.306 127.725 159.644 126.275 154.227C125.512 151.381 124.2 148.79 122.366 146.515C121.07 144.898 121.329 142.54 122.941 141.239C124.558 139.944 126.916 140.202 128.216 141.815C130.7 144.906 132.483 148.431 133.516 152.29C135.487 159.64 134.474 167.319 130.67 173.91C126.866 180.506 120.72 185.215 113.366 187.19C110.912 187.844 108.425 188.169 105.945 188.169Z" fill="#7E1416"/>
<path d="M142.121 111.311C145.821 125.106 137.633 139.285 123.838 142.981C110.042 146.677 95.8585 138.49 92.1627 124.694C88.4668 110.898 96.6542 96.7188 110.45 93.023C124.246 89.3272 138.425 97.5147 142.121 111.311Z" fill="white"/>
<path d="M154.121 123.307C157.817 137.102 149.629 151.286 135.834 154.982C122.038 158.677 107.858 150.49 104.163 136.694C100.467 122.898 108.654 108.719 122.45 105.019C136.246 101.323 150.425 109.511 154.121 123.307Z" fill="#C53A7E"/>
<path d="M100.492 122.465C104.188 136.261 96.0007 150.44 82.2048 154.136C68.409 157.836 54.2298 149.648 50.5298 135.852C46.834 122.056 55.0215 107.873 68.8174 104.177C82.6132 100.481 96.7924 108.669 100.492 122.465Z" fill="white"/>
<path d="M112.492 134.465C116.188 148.261 108 162.44 94.2044 166.136C80.4086 169.836 66.2293 161.648 62.5335 147.852C58.8335 134.056 67.021 119.873 80.8169 116.177C94.6127 112.481 108.796 120.669 112.492 134.465Z" fill="#C53A7E"/>
<path d="M75.5167 158.773C62.4417 158.773 50.45 150.036 46.9083 136.819C45.7083 132.336 45.5667 127.769 46.4876 123.248C46.9042 121.219 48.8792 119.898 50.9125 120.323C52.9417 120.736 54.2501 122.715 53.8376 124.748C53.1501 128.119 53.2542 131.527 54.1542 134.881C55.6792 140.586 59.3375 145.352 64.4542 148.306C69.5709 151.256 75.5209 152.044 81.2334 150.515C93.0084 147.356 100.025 135.211 96.8668 123.436C95.971 120.086 94.3585 117.077 92.071 114.502C90.7001 112.952 90.8418 110.581 92.3918 109.206C93.9418 107.836 96.3126 107.977 97.6876 109.527C100.75 112.986 102.913 117.011 104.113 121.494C106.158 129.131 105.108 137.111 101.154 143.961C97.2001 150.811 90.8126 155.715 83.1709 157.756C80.6167 158.444 78.0459 158.773 75.5167 158.773Z" fill="#7E1416"/>
<path d="M117.188 147.606C110.475 147.606 103.85 145.327 98.5252 141.027C96.9127 139.727 96.6586 137.369 97.9628 135.756C99.2628 134.148 101.617 133.894 103.234 135.194C108.725 139.623 116.067 141.181 122.867 139.36C134.642 136.202 141.654 124.056 138.504 112.277C137.742 109.435 136.45 106.823 134.671 104.511C133.409 102.869 133.713 100.515 135.355 99.2521C137 97.9896 139.35 98.2979 140.613 99.9354C143 103.035 144.725 106.531 145.746 110.34C149.971 126.106 140.575 142.381 124.804 146.606C122.3 147.277 119.738 147.606 117.188 147.606Z" fill="#7E1416"/>
<path d="M70.0038 91.9598C73.7038 105.756 65.5163 119.935 51.7204 123.631C37.9246 127.331 23.7413 119.143 20.0455 105.347C16.3496 91.5516 24.5372 77.3683 38.333 73.6724C52.1289 69.9766 66.308 78.164 70.0038 91.9598Z" fill="white"/>
<path d="M82.0038 103.96C85.6996 117.756 77.5121 131.935 63.7163 135.631C49.9204 139.331 35.7413 131.143 32.0455 117.348C28.3496 103.552 36.5372 89.3683 50.333 85.6724C64.1289 81.9766 78.308 90.1641 82.0038 103.96Z" fill="#C53A7E"/>
<path d="M45.0173 76.5398C43.1298 76.5398 41.2131 76.7857 39.3048 77.294C27.5256 80.4523 20.513 92.5982 23.6672 104.377C26.8255 116.152 38.9797 123.157 50.7505 120.011C62.5255 116.852 69.5423 104.706 66.3839 92.9315C63.7381 83.0648 54.7798 76.5398 45.0173 76.5398ZM45.0339 128.269C31.9589 128.269 19.9673 119.532 16.4256 106.315C12.1964 90.544 21.5922 74.2773 37.3631 70.0523C53.1298 65.819 69.4048 75.2148 73.6256 90.9898C77.8548 106.761 68.4631 123.027 52.6881 127.252C50.134 127.94 47.5631 128.269 45.0339 128.269Z" fill="#7E1416"/>
<path d="M111.639 80.8065C115.334 94.6024 107.151 108.782 93.351 112.477C79.5552 116.173 65.3761 107.986 61.6802 94.1899C57.9844 80.394 66.1719 66.2149 79.9678 62.5191C93.7636 58.8233 107.943 67.0107 111.639 80.8065Z" fill="white"/>
<path d="M123.639 92.8022C127.334 106.598 119.151 120.781 105.355 124.477C91.5594 128.173 77.3761 119.986 73.6802 106.19C69.9844 92.3939 78.1719 78.2147 91.9678 74.5189C105.764 70.8189 119.943 79.0064 123.639 92.8022Z" fill="#C53A7E"/>
<path d="M86.6548 65.3851C84.7631 65.3851 82.8465 65.6309 80.934 66.1392C75.2298 67.6684 70.4631 71.3268 67.5089 76.4393C64.5589 81.556 63.7714 87.5143 65.3006 93.2226C66.8298 98.9268 70.4882 103.694 75.6007 106.648C80.7215 109.602 86.6798 110.381 92.384 108.856C98.0881 107.327 102.855 103.668 105.809 98.5559C108.759 93.4393 109.547 87.481 108.017 81.7726C105.376 71.9101 96.4173 65.3851 86.6548 65.3851ZM86.609 117.119C81.4798 117.119 76.4173 115.777 71.8548 113.139C65.0006 109.185 60.1049 102.802 58.059 95.1601C56.0132 87.5226 57.059 79.5434 61.0173 72.6934C64.9715 65.8392 71.3549 60.9434 78.9965 58.8975C94.759 54.6684 111.038 64.06 115.263 79.835C119.488 95.6059 110.092 111.877 94.3215 116.098C91.7715 116.781 89.1799 117.119 86.609 117.119Z" fill="#7E1416"/>
<path d="M153.271 69.6479C156.967 83.4438 148.779 97.6271 134.984 101.323C121.188 105.019 107.009 96.8312 103.313 83.0354C99.6128 69.2395 107.8 55.0604 121.596 51.3646C135.392 47.6646 149.575 55.8521 153.271 69.6479Z" fill="white"/>
<path d="M165.272 81.6479C168.968 95.4438 160.78 109.627 146.984 113.323C133.188 117.019 119.009 108.831 115.309 95.0354C111.613 81.2395 119.801 67.0604 133.597 63.3646C147.393 59.6646 161.576 67.8521 165.272 81.6479Z" fill="#C53A7E"/>
<path d="M128.287 54.2265C126.396 54.2265 124.479 54.4724 122.567 54.9849C110.792 58.1432 103.775 70.289 106.933 82.064C110.092 93.839 122.241 100.847 134.012 97.7016C145.792 94.5433 152.804 82.3974 149.65 70.6183C147.004 60.7516 138.05 54.2265 128.287 54.2265ZM128.3 105.956C115.225 105.956 103.229 97.2224 99.6915 84.0057C95.4623 68.2349 104.854 51.964 120.629 47.7432C136.392 43.5057 152.662 52.9058 156.892 68.6808C161.121 84.4516 151.725 100.718 135.954 104.943C133.4 105.631 130.829 105.956 128.3 105.956Z" fill="#7E1416"/>
</g>
</svg>
