<svg width="108" height="127" viewBox="0 0 108 127" fill="none" xmlns="http://www.w3.org/2000/svg">
<g opacity="0.1">
<path d="M104.716 5.44691H88.1891C86.8907 5.44691 85.8379 4.37036 85.8379 3.0367C85.8379 1.70572 86.8907 0.626465 88.1891 0.626465H104.716C106.014 0.626465 107.067 1.70572 107.067 3.0367C107.067 4.37036 106.014 5.44691 104.716 5.44691Z" fill="#7E1416"/>
<path d="M69.2542 105.833C86.5492 88.1018 93.2477 61.0188 76.342 43.6919C59.4363 26.3624 33.0159 33.2288 15.7209 50.9574C1.8249 65.2019 0.320092 82.6011 6.92717 97.7748C7.9539 100.132 8.28568 102.748 7.96173 105.394C7.60903 108.283 8.09757 110.629 9.57104 112.137C11.0419 113.648 13.3305 114.148 16.1494 113.787C18.7306 113.455 21.283 113.795 23.582 114.847C38.3846 121.62 55.3582 120.077 69.2542 105.833Z" fill="white"/>
<path d="M52.9953 38.017C38.5297 38.017 26.8047 21.9087 26.8047 21.9087C26.8047 21.9087 38.5297 5.80029 52.9953 5.80029C67.4583 5.80029 79.1832 21.9087 79.1832 21.9087C79.1832 21.9087 67.4583 38.017 52.9953 38.017Z" fill="white"/>
<path d="M79.184 24.319C78.1024 24.319 77.1306 23.5531 76.8876 22.4283C76.6081 21.1268 77.4101 19.8413 78.6772 19.5548L92.5732 16.4134C93.8482 16.1269 95.097 16.949 95.3765 18.2479C95.6534 19.5467 94.854 20.8349 93.5869 21.1214L79.6909 24.2628C79.5211 24.3002 79.3512 24.319 79.184 24.319Z" fill="#7E1416"/>
<path d="M76.7754 113.545C94.0729 95.8169 100.771 68.7339 83.8658 51.4043C66.9601 34.0748 40.5396 40.9412 23.2421 58.6698C9.34865 72.9143 7.84122 90.3135 14.4509 105.487C15.4776 107.844 15.8094 110.46 15.4855 113.106C15.1328 115.996 15.6213 118.342 17.0922 119.85C18.5657 121.36 20.8516 121.861 23.6705 121.499C26.2543 121.167 28.8068 121.507 31.1032 122.56C45.9058 129.332 62.8819 127.79 76.7754 113.545Z" fill="#FBF37D"/>
<path d="M18.0245 111.254C20.3104 111.254 22.5285 111.725 24.5375 112.646C39.7999 119.63 55.4933 116.527 67.5919 104.13C83.1992 88.1314 90.9845 62.1089 74.6797 45.3953C58.3697 28.6817 32.989 36.6676 17.3818 52.6635C5.2884 65.0601 2.25787 81.1444 9.07395 96.7922C10.2548 99.5023 10.6754 102.582 10.294 105.697C10.1059 107.226 10.1163 109.293 11.2319 110.434C12.3474 111.575 14.3617 111.586 15.8561 111.395C16.5824 111.302 17.306 111.254 18.0245 111.254ZM40.6829 121.168C34.7368 121.168 28.6522 119.807 22.6225 117.046C20.765 116.197 18.628 115.897 16.4413 116.178C11.838 116.765 9.26206 115.233 7.90877 113.843C6.55025 112.453 5.05327 109.807 5.62803 105.097C5.90234 102.855 5.60973 100.662 4.77895 98.7578C-2.87315 81.1846 0.507469 63.1427 14.0586 49.2544C31.2778 31.6061 59.5428 23.0605 78.0055 41.9889C96.4709 60.9145 88.1343 89.8882 70.9151 107.539C62.1292 116.543 51.6425 121.168 40.6829 121.168Z" fill="#7E1416"/>
<path d="M60.5171 45.7299C46.0541 45.7299 34.3291 29.6216 34.3291 29.6216C34.3291 29.6216 46.0541 13.5132 60.5171 13.5132C74.9827 13.5132 86.7077 29.6216 86.7077 29.6216C86.7077 29.6216 74.9827 45.7299 60.5171 45.7299Z" fill="#21B999"/>
<path d="M29.8353 21.9061C33.0095 25.6875 42.3467 35.6069 52.9953 35.6069C63.6414 35.6069 72.9733 25.6928 76.1476 21.9087C72.9733 18.1247 63.6414 8.21061 52.9953 8.21061C42.3153 8.21061 33.0043 18.122 29.8353 21.9061ZM52.9953 40.4274C37.5292 40.4274 25.4279 24.0485 24.9185 23.3495C24.2967 22.4952 24.2967 21.3222 24.9185 20.468C25.4279 19.769 37.5292 3.39014 52.9953 3.39014C68.4589 3.39014 80.5627 19.769 81.0695 20.468C81.6913 21.3222 81.6913 22.4952 81.0695 23.3495C80.5627 24.0485 68.4589 40.4274 52.9953 40.4274Z" fill="#7E1416"/>
<path d="M96.1234 12.8838C95.9197 12.8838 95.7107 12.8544 95.5043 12.7981C94.2503 12.4473 93.5109 11.1243 93.8531 9.83889C94.5089 7.36706 94.8407 5.07736 94.8407 3.0367C94.8407 1.70572 95.8935 0.626465 97.192 0.626465C98.4904 0.626465 99.5432 1.70572 99.5432 3.0367C99.5432 5.50585 99.1566 8.21868 98.3885 11.1056C98.1038 12.1768 97.158 12.8838 96.1234 12.8838Z" fill="#7E1416"/>
<path d="M79.1836 43.1883C78.6429 43.1883 78.1021 43.0008 77.6606 42.6125C76.6704 41.7502 76.5528 40.229 77.3941 39.2167C77.4777 39.115 85.8378 28.9866 90.9505 17.7496C91.4991 16.5445 92.8994 16.0223 94.0751 16.5847C95.2507 17.1471 95.7602 18.5798 95.2115 19.7876C89.8245 31.6299 81.3338 41.9081 80.9733 42.342C80.5082 42.9017 79.8498 43.1883 79.1836 43.1883Z" fill="#7E1416"/>
<path d="M67.9653 82.7188C67.7067 82.7188 67.4454 82.6733 67.1842 82.5796C65.9589 82.1404 65.3162 80.7638 65.7499 79.5078C67.3853 74.7383 69.0756 65.6517 61.9983 58.3969C61.0787 57.4542 61.0787 55.9278 61.9983 54.9878C62.9153 54.0451 64.4044 54.0451 65.3214 54.9878C71.8214 61.6507 73.5953 71.1711 70.1833 81.1066C69.8437 82.0975 68.9346 82.7188 67.9653 82.7188Z" fill="#7E1416"/>
<path d="M59.4066 96.3875C58.8031 96.3875 58.2022 96.1518 57.7424 95.6805C56.8254 94.7378 56.8254 93.2114 57.7424 92.2714C58.8919 91.0957 59.9709 89.829 60.948 88.5114C61.7344 87.4482 63.2053 87.2447 64.2451 88.0508C65.277 88.8569 65.4781 90.37 64.6918 91.4278C63.5841 92.9195 62.3666 94.3522 61.0682 95.6805C60.6084 96.1518 60.0075 96.3875 59.4066 96.3875Z" fill="#7E1416"/>
</g>
</svg>
