<svg width="77" height="70" viewBox="0 0 77 70" fill="none" xmlns="http://www.w3.org/2000/svg">
<path d="M22.0257 15.3633H66.0488C67.3864 15.3633 68.3867 16.7474 68.0843 18.2012L63.397 40.7071C63.176 41.7539 62.3386 42.4983 61.3616 42.4983H26.7711C25.8057 42.4983 24.9567 41.7539 24.7357 40.7071L19.9903 18.2012C19.6879 16.759 20.6765 15.3633 22.0257 15.3633Z" fill="#DCF763"/>
<path d="M48.3934 44.8595C42.2057 44.8711 36.0297 44.8478 29.842 44.8711C27.6437 44.8827 27.4228 45.441 28.5393 47.4997C29.4931 49.2676 30.9702 49.6281 32.7265 49.6165C43.299 49.5933 53.8599 49.5933 64.4324 49.6281C65.991 49.6398 68.2939 49.0815 68.2823 51.5938C68.2707 54.1991 65.9096 53.4198 64.4208 53.4198C53.6971 53.478 42.9733 53.3617 32.2496 53.4896C28.5044 53.5361 26.2248 51.6636 24.7011 48.3138C23.5031 45.6736 22.9332 42.8124 22.3284 39.9745C21.9795 38.3578 21.1886 37.7878 19.7114 37.8227C17.4434 37.8809 15.1637 37.8576 12.9073 37.7995C11.6628 37.7646 10.4532 37.4505 10.4183 35.8106C10.3834 34.1357 11.6163 33.8217 12.8492 33.7752C14.8846 33.7054 16.92 33.7519 18.9554 33.7054C19.6068 33.6821 20.5256 33.8798 20.514 32.7284C20.4907 31.763 20.1883 30.9023 19.0601 30.8442C18.5134 30.8209 17.9668 30.8093 17.4201 30.7395C16.3152 30.5999 15.3963 30.123 15.3382 28.7971C15.28 27.6107 16.0709 27.0408 17.0712 26.785C17.8505 26.5756 18.9787 26.8082 18.8275 25.366C18.6763 23.9237 17.6411 23.7958 16.5594 23.7958C13.2679 23.7842 9.97633 23.8074 6.6964 23.7493C5.34721 23.726 3.77703 23.6562 3.83518 21.6673C3.89334 19.7017 5.42862 19.7017 6.78944 19.6901C9.68555 19.6668 12.5817 19.6435 15.4778 19.7017C16.8967 19.725 17.5364 19.3179 17.0828 17.6663C16.1407 14.2468 15.7104 10.6645 14.3147 7.38452C13.454 5.36074 12.1048 4.30232 9.91817 4.407C7.58035 4.52331 5.21927 4.44189 2.86981 4.407C1.55552 4.38374 0.485468 3.93013 0.520361 2.30179C0.555254 0.766509 1.67183 0.429211 2.82329 0.405949C5.40536 0.347795 7.98743 0.324532 10.5695 0.41758C13.8611 0.522259 16.1756 2.29016 17.5481 5.43052C17.9784 6.40752 18.3739 7.40778 18.7112 8.43131C20.1069 12.6882 20.0953 12.6999 24.4569 12.6999C40.5076 12.6999 56.5583 12.6882 72.609 12.6999C76.7147 12.6999 77.1451 13.2814 76.1448 17.5267C74.2606 25.587 72.3066 33.6356 70.5038 41.7191C69.992 43.9988 68.8871 44.8711 66.7237 44.8478C60.6059 44.8013 54.4996 44.8478 48.3934 44.8595ZM46.5208 16.8289C38.8444 16.8289 31.1679 16.794 23.5031 16.8637C22.6657 16.8754 21.1769 16.0728 21.0723 17.8175C20.9559 19.6784 22.3866 19.7599 23.7125 19.7482C25.7479 19.725 27.7833 19.725 29.8187 19.7831C30.9353 19.818 31.8774 20.2949 31.9588 21.6208C32.0519 23.1096 31.0749 23.6795 29.8653 23.7609C28.2253 23.8656 26.5737 23.7725 24.9337 23.8772C24.1196 23.9354 22.7936 23.3538 22.7239 24.9007C22.6424 26.3779 23.6543 26.8547 24.9337 26.7617C25.399 26.7268 25.8758 26.7152 26.3411 26.7617C27.888 26.9129 30.1677 26.2267 30.2607 28.7041C30.3654 31.2629 28.0857 30.693 26.5272 30.8558C25.6665 30.9488 24.422 30.5301 24.422 32.0887C24.4336 33.5309 25.4804 33.7403 26.5853 33.7403C28.6207 33.7519 30.6562 33.717 32.6916 33.7752C33.9245 33.81 35.2039 34.0776 35.2388 35.7059C35.2736 37.4971 33.9245 37.7762 32.6102 37.8111C30.8888 37.8693 29.1674 37.8227 27.446 37.8576C26.8528 37.8693 26.0503 37.7646 26.0154 38.7067C25.9805 39.5441 26.2015 40.4048 27.1552 40.6374C27.6089 40.7537 28.0857 40.7421 28.551 40.7421C40.5308 40.7537 52.5107 40.7188 64.4906 40.777C66.212 40.7886 67.0029 40.114 67.41 38.3461C68.8406 31.9607 70.3526 25.587 71.8995 19.2365C72.3764 17.3057 71.8414 16.7591 70.0037 16.7823C62.1877 16.8754 54.36 16.8289 46.5208 16.8289Z" fill="#254441"/>
<path d="M66.8278 62.1546C66.8511 65.9812 63.734 69.3077 60.0935 69.3542C56.3832 69.4124 53.1847 66.0394 53.1963 62.0616C53.208 58.142 56.232 54.9085 59.919 54.8853C63.7107 54.8504 66.8162 58.1187 66.8278 62.1546ZM59.7445 65.2019C61.7334 65.2252 63.0594 63.9458 63.0128 62.1663C62.9663 60.2239 61.9312 59.0957 60.1284 58.9329C58.4535 58.7817 56.8135 60.4216 56.9531 62.143C57.1043 64.0389 58.1278 65.1554 59.7445 65.2019Z" fill="#3A9278"/>
<path d="M26.8644 62.0617C26.8877 58.0723 29.8303 54.8971 33.5289 54.8738C37.3206 54.8389 40.3563 58.1072 40.333 62.1897C40.3098 66.1093 37.309 69.3195 33.6452 69.3544C29.8303 69.3892 26.8411 66.1791 26.8644 62.0617ZM33.4126 65.3417C35.2852 65.2835 36.867 63.6552 36.646 61.9687C36.4018 60.1543 35.4248 58.9446 33.5638 58.9214C31.9122 58.8981 30.4002 60.5381 30.5398 62.2827C30.691 64.2135 31.8308 65.1672 33.4126 65.3417Z" fill="#3A9278"/>
<path d="M7.24295 26.8082C8.8015 26.8082 10.3717 26.7268 11.9302 26.8315C13.0468 26.9129 13.9075 27.5642 13.8493 28.8902C13.8028 30.0649 12.9886 30.7162 11.9651 30.7395C8.76661 30.8093 5.56809 30.8209 2.36958 30.7278C1.25301 30.693 0.403952 30.0067 0.473738 28.6692C0.543524 27.3316 1.46237 26.8431 2.56731 26.7966C4.12586 26.7384 5.6844 26.7733 7.25458 26.7733C7.24295 26.785 7.24295 26.7966 7.24295 26.8082Z" fill="#254441"/>
</svg>
