<svg width="96" height="116" viewBox="0 0 96 116" fill="none" xmlns="http://www.w3.org/2000/svg">
<path d="M65.0203 47.3051C65.0203 51.8576 63.2118 56.2237 59.9926 59.4428C56.7735 62.662 52.4074 64.4705 47.8549 64.4705C43.3023 64.4705 38.9362 62.662 35.7171 59.4428C32.4979 56.2237 30.6895 51.8576 30.6895 47.3051C30.6895 42.7525 32.4979 38.3864 35.7171 35.1673C38.9362 31.9481 43.3023 30.1396 47.8549 30.1396C52.4074 30.1396 56.7735 31.9481 59.9926 35.1673C63.2118 38.3864 65.0203 42.7525 65.0203 47.3051Z" stroke="#254441" stroke-width="8.5827" stroke-linecap="round" stroke-linejoin="round"/>
<path d="M90.7684 47.3051C90.7684 88.1702 47.8549 111.675 47.8549 111.675C47.8549 111.675 4.94141 88.1702 4.94141 47.3051C4.94141 35.9237 9.46264 25.0085 17.5105 16.9607C25.5583 8.91283 36.4735 4.3916 47.8549 4.3916C59.2363 4.3916 70.1515 8.91283 78.1994 16.9607C86.2472 25.0085 90.7684 35.9237 90.7684 47.3051Z" stroke="#254441" stroke-width="8.5827" stroke-linecap="round" stroke-linejoin="round"/>
</svg>
